<?xml version="1.0" encoding="UTF-8" standalone="no"?>
<!-- Created with Inkscape (http://www.inkscape.org/) -->
<svg
   xmlns:dc="http://purl.org/dc/elements/1.1/"
   xmlns:cc="http://creativecommons.org/ns#"
   xmlns:rdf="http://www.w3.org/1999/02/22-rdf-syntax-ns#"
   xmlns:svg="http://www.w3.org/2000/svg"
   xmlns="http://www.w3.org/2000/svg"
   xmlns:xlink="http://www.w3.org/1999/xlink"
   xmlns:sodipodi="http://sodipodi.sourceforge.net/DTD/sodipodi-0.dtd"
   xmlns:inkscape="http://www.inkscape.org/namespaces/inkscape"
   width="540"
   height="548"
   id="svg4901"
   sodipodi:version="0.32"
   inkscape:version="0.46"
   version="1.0"
   sodipodi:docname="island-impassable.svg"
   inkscape:output_extension="org.inkscape.output.svg.inkscape"
   inkscape:export-filename="/export/scratch/reid/cp/doc/island-impassable.png"
   inkscape:export-xdpi="90"
   inkscape:export-ydpi="90">
  <defs
     id="defs4903">
    <marker
       inkscape:stockid="Arrow1MendhF"
       orient="auto"
       refY="0.0"
       refX="0.0"
       id="Arrow1MendhF"
       style="overflow:visible;">
      <path
         id="path4858"
         d="M 0.0,0.0 L 5.0,-5.0 L -12.5,0.0 L 5.0,5.0 L 0.0,0.0 z "
         style="fill-rule:evenodd;marker-start:none;stroke:#0000ff;stroke-width:1.0pt;fill:#0000ff"
         transform="scale(0.4) rotate(180) translate(10,0)" />
    </marker>
    <inkscape:perspective
       sodipodi:type="inkscape:persp3d"
       inkscape:vp_x="0 : 526.18109 : 1"
       inkscape:vp_y="0 : 1000 : 0"
       inkscape:vp_z="744.09448 : 526.18109 : 1"
       inkscape:persp3d-origin="372.04724 : 350.78739 : 1"
       id="perspective4909" />
    <inkscape:perspective
       id="perspective4955"
       inkscape:persp3d-origin="372.04724 : 350.78739 : 1"
       inkscape:vp_z="744.09448 : 526.18109 : 1"
       inkscape:vp_y="0 : 1000 : 0"
       inkscape:vp_x="0 : 526.18109 : 1"
       sodipodi:type="inkscape:persp3d" />
    <inkscape:perspective
       id="perspective5039"
       inkscape:persp3d-origin="372.04724 : 350.78739 : 1"
       inkscape:vp_z="744.09448 : 526.18109 : 1"
       inkscape:vp_y="0 : 1000 : 0"
       inkscape:vp_x="0 : 526.18109 : 1"
       sodipodi:type="inkscape:persp3d" />
    <inkscape:perspective
       id="perspective5089"
       inkscape:persp3d-origin="372.04724 : 350.78739 : 1"
       inkscape:vp_z="744.09448 : 526.18109 : 1"
       inkscape:vp_y="0 : 1000 : 0"
       inkscape:vp_x="0 : 526.18109 : 1"
       sodipodi:type="inkscape:persp3d" />
  </defs>
  <sodipodi:namedview
     id="base"
     pagecolor="#ffffff"
     bordercolor="#666666"
     borderopacity="1.0"
     gridtolerance="10000"
     guidetolerance="10"
     objecttolerance="10"
     inkscape:pageopacity="0.0"
     inkscape:pageshadow="2"
     inkscape:zoom="1"
     inkscape:cx="270"
     inkscape:cy="274"
     inkscape:document-units="px"
     inkscape:current-layer="layer1"
     showgrid="false"
     inkscape:window-width="1328"
     inkscape:window-height="1172"
     inkscape:window-x="1710"
     inkscape:window-y="0" />
  <metadata
     id="metadata4906">
    <rdf:RDF>
      <cc:Work
         rdf:about="">
        <dc:format>image/svg+xml</dc:format>
        <dc:type
           rdf:resource="http://purl.org/dc/dcmitype/StillImage" />
      </cc:Work>
    </rdf:RDF>
  </metadata>
  <g
     inkscape:label="Layer 1"
     inkscape:groupmode="layer"
     id="layer1"
     transform="translate(-78.571434,-155.50504)">
    <image
       y="155.50504"
       x="78.571434"
       id="image5091"
       height="548"
       width="540"
       sodipodi:absref="/export/scratch/reid/cp/doc/island-impassable-raw.png"
       xlink:href="island-impassable-raw.png" />
    <path
       style="fill:none;fill-opacity:1;fill-rule:evenodd;stroke:#0000ff;stroke-width:3;stroke-linecap:butt;stroke-linejoin:miter;marker-end:url(#Arrow1MendhF);stroke-miterlimit:4;stroke-dasharray:none;stroke-opacity:1"
       d="M 250.66132,662.85314 L 285.66132,622.85314"
       id="path4895"
       sodipodi:nodetypes="cc" />
    <text
       xml:space="preserve"
       style="font-size:22px;font-style:normal;font-variant:normal;font-weight:bold;font-stretch:normal;text-align:start;line-height:100%;writing-mode:lr-tb;text-anchor:start;fill:#0000ff;fill-opacity:1;stroke:none;stroke-width:1pt;stroke-linecap:butt;stroke-linejoin:miter;stroke-opacity:1;font-family:Bitstream Vera Sans;-inkscape-font-specification:Bitstream Vera Sans Bold"
       x="174.66132"
       y="686.85315"
       id="text4897"
       sodipodi:linespacing="100%"><tspan
         sodipodi:role="line"
         id="tspan4899"
         x="174.66132"
         y="686.85315">&quot;Island&quot;</tspan></text>
    <path
       style="fill:none;fill-opacity:0.75000000000000000;fill-rule:evenodd;stroke:#0000ff;stroke-width:2;stroke-linecap:butt;stroke-linejoin:miter;stroke-opacity:1;stroke-miterlimit:4;stroke-dasharray:2, 2;stroke-dashoffset:0"
       d="M 208,222 C 204.72118,222.67871 196.63587,224.59103 191,226 C 184.54117,227.61471 177.19143,230.20214 170,232 C 164.96524,233.25869 162.1214,234.8786 159,238 C 156.16899,240.83101 154.98247,248.03506 153,252 C 150.49204,257.01592 150.22045,262.11821 149,267 C 147.84466,271.62136 148,276.30003 148,282 C 148,288.42733 147,293.53908 147,300 C 147,305.66667 147,311.33333 147,317 C 147,321.67606 147.91862,328.6745 149,333 C 150.2453,337.9812 149,344.84878 149,350 C 149,355.66667 149,361.33333 149,367 C 149,372.74802 150,377.20009 150,383 C 150,392.33333 150,401.66667 150,411 C 150,417.38225 149.56012,424.24047 151,430 C 152.24266,434.97064 151,441.82096 151,447 C 151,451.39684 152.61882,458.23764 154,461 C 155.33648,463.67297 165.03695,463 168,463 C 173,463 178,463 183,463 C 188.33333,463 193.66667,463 199,463 C 202.88139,463 208.43975,462 213,462 C 218.62802,462 223.75811,462.95162 229,464 C 234.40695,465.08139 238.85615,467.71404 244,469 C 248.73798,470.1845 254.31157,469.82789 259,471 C 265.89968,472.72492 275.83096,471 283,471 C 289.23596,471 295.2478,471.15044 301,470 C 307.26343,468.74731 313.53262,469 320,469 C 328.54943,469 336.44251,468 345,468 C 350,468 355,468 360,468 C 366.00935,468 368.80901,467 375,467 C 381.44584,467 388.13232,467.17354 394,466 C 400.31519,464.73696 400.15531,463.84469 404,460 C 408.97329,455.02671 408,448.7358 408,442 C 408,434.73503 409.83123,433.83123 404,428 C 400.54766,424.54766 391.84406,424 387,424 C 381,424 375,424 369,424 C 364,424 359,424 354,424 C 348.51678,424 342.89479,423.7763 338,425 C 333.63934,426.09016 327.52146,425 323,425 C 317.57269,425 314.92726,422.23182 310,421 C 304.72981,419.68245 304.04437,412.17748 303,408 C 301.78081,403.12323 303,396.11879 303,391 C 303,385.22572 303.69942,380.20233 305,375 C 306.36145,369.5542 306,363.76606 306,358 C 306,352.12655 307,345.26664 307,339 C 307,332.40769 308,326.5421 308,320 C 308,314.66667 308,309.33333 308,304 C 308,297.39103 309,291.50777 309,285 C 309,278.33333 309,271.66667 309,265 C 309,258.84511 309.172,252.86001 308,247 C 306.64154,240.20769 307.06755,236.13511 304,230 C 301.04606,224.09211 298.89622,222 291,222 C 286,222 281,222 276,222 C 270.55634,222 265.75004,223 260,223 C 253.05638,223 246.94196,225 240,225 C 235,225 230,225 225,225 C 216.74529,225 216.17633,226.9058 208,222 z"
       id="path5100"
       transform="translate(78.571434,155.50504)" />
    <rect
       style="opacity:1;fill:#d6c5b4;fill-opacity:1;stroke:none;stroke-width:1;stroke-linecap:square;stroke-linejoin:miter;stroke-miterlimit:4;stroke-dasharray:none;stroke-dashoffset:0;stroke-opacity:1"
       id="rect5661"
       width="168.82759"
       height="49.655174"
       x="343.24139"
       y="64.482758"
       transform="translate(78.571434,155.50504)" />
    <text
       xml:space="preserve"
       style="font-size:22px;font-style:normal;font-variant:normal;font-weight:bold;font-stretch:normal;text-align:start;line-height:100%;writing-mode:lr-tb;text-anchor:start;fill:#0000ff;fill-opacity:1;stroke:none;stroke-width:1;stroke-linecap:butt;stroke-linejoin:miter;stroke-miterlimit:4;stroke-dasharray:none;stroke-opacity:1;font-family:Bitstream Vera Sans;-inkscape-font-specification:Bitstream Vera Sans Bold"
       x="424.02371"
       y="239.36189"
       id="text5617"
       sodipodi:linespacing="100%"><tspan
         sodipodi:role="line"
         id="tspan5621"
         x="424.02371"
         y="239.36189">Blocks rated</tspan><tspan
         sodipodi:role="line"
         id="tspan5623"
         x="424.02371"
         y="261.36191">impassable</tspan></text>
    <path
       style="fill:none;fill-opacity:1;fill-rule:evenodd;stroke:#0000ff;stroke-width:3;stroke-linecap:butt;stroke-linejoin:miter;marker-end:url(#Arrow1MendhF);stroke-miterlimit:4;stroke-dasharray:none;stroke-opacity:1"
       d="M 420.45868,232.25891 C 93.45868,241.25891 122.45868,393.25891 178.45868,584.25891"
       id="path5625"
       sodipodi:nodetypes="cc" />
    <path
       style="fill:none;fill-opacity:1;fill-rule:evenodd;stroke:#0000ff;stroke-width:3;stroke-linecap:butt;stroke-linejoin:miter;marker-end:url(#Arrow1MendhF);stroke-miterlimit:4;stroke-dasharray:none;stroke-opacity:1"
       d="M 419.98454,231.44063 C 137.42064,245.73017 175.11164,336.35789 197.98454,397.44063"
       id="path5627"
       sodipodi:nodetypes="cc" />
    <path
       style="fill:none;fill-opacity:1;fill-rule:evenodd;stroke:#0000ff;stroke-width:3;stroke-linecap:butt;stroke-linejoin:miter;marker-end:url(#Arrow1MendhF);stroke-miterlimit:4;stroke-dasharray:none;stroke-opacity:1"
       d="M 419.22592,231.19925 C 272.84661,233.99235 332.2604,284.81994 270.32937,338.64753"
       id="path5631"
       sodipodi:nodetypes="cc" />
    <path
       style="fill:none;fill-opacity:1;fill-rule:evenodd;stroke:#0000ff;stroke-width:3;stroke-linecap:butt;stroke-linejoin:miter;marker-end:url(#Arrow1MendhF);stroke-miterlimit:4;stroke-dasharray:none;stroke-opacity:1"
       d="M 419.43202,231.44776 C 354.98374,254.72362 434.2596,298.72362 372.32857,334.55121"
       id="path5633"
       sodipodi:nodetypes="cc" />
    <path
       style="fill:none;fill-opacity:1;fill-rule:evenodd;stroke:#0000ff;stroke-width:3;stroke-linecap:butt;stroke-linejoin:miter;marker-end:url(#Arrow1MendhF);stroke-miterlimit:4;stroke-dasharray:none;stroke-opacity:1"
       d="M 490.97758,271.09443 C 549.42585,355.19788 534.97757,536.37029 511.5293,587.71512"
       id="path5655"
       sodipodi:nodetypes="cc" />
    <path
       style="fill:none;fill-opacity:1;fill-rule:evenodd;stroke:#0000ff;stroke-width:3;stroke-linecap:butt;stroke-linejoin:miter;marker-end:url(#Arrow1MendhF);stroke-miterlimit:4;stroke-dasharray:none;stroke-opacity:1"
       d="M 490.67706,271.1018 C 542.29774,353.96387 537.15981,446.99835 470.26326,513.86042"
       id="path5657"
       sodipodi:nodetypes="cc" />
    <path
       style="fill:none;fill-opacity:1;fill-rule:evenodd;stroke:#0000ff;stroke-width:3;stroke-linecap:butt;stroke-linejoin:miter;marker-end:url(#Arrow1MendhF);stroke-miterlimit:4;stroke-dasharray:none;stroke-opacity:1"
       d="M 491.05264,271.7162 C 548.88022,357.06103 456.22505,329.06103 428.43194,395.9231"
       id="path5659"
       sodipodi:nodetypes="cc" />
  </g>
</svg>
